<mxfile host="app.diagrams.net" agent="Mozilla/5.0 (Windows NT 10.0; Win64; x64) AppleWebKit/537.36 (KHTML, like Gecko) Chrome/130.0.0.0 Safari/537.36" version="24.8.6">
  <diagram name="Page-1" id="0N53ZpHY86pgKnJE1wdw">
    <mxGraphModel dx="2440" dy="1332" grid="1" gridSize="10" guides="1" tooltips="1" connect="1" arrows="1" fold="1" page="1" pageScale="1" pageWidth="3300" pageHeight="2339" math="0" shadow="0">
      <root>
        <mxCell id="0" />
        <mxCell id="1" parent="0" />
        <mxCell id="Su0bgsj7kbN5on_HVwE3-44" style="edgeStyle=orthogonalEdgeStyle;rounded=0;orthogonalLoop=1;jettySize=auto;html=1;exitX=1;exitY=0.5;exitDx=0;exitDy=0;entryX=0;entryY=0.5;entryDx=0;entryDy=0;startArrow=classic;startFill=1;" edge="1" parent="1" source="Su0bgsj7kbN5on_HVwE3-1" target="Su0bgsj7kbN5on_HVwE3-2">
          <mxGeometry relative="1" as="geometry" />
        </mxCell>
        <mxCell id="Su0bgsj7kbN5on_HVwE3-1" value="Angular Application" style="rounded=1;whiteSpace=wrap;html=1;fillColor=#a20025;fontColor=#ffffff;strokeColor=#6F0000;" vertex="1" parent="1">
          <mxGeometry x="405" y="385" width="80" height="60" as="geometry" />
        </mxCell>
        <mxCell id="Su0bgsj7kbN5on_HVwE3-20" style="edgeStyle=orthogonalEdgeStyle;rounded=0;orthogonalLoop=1;jettySize=auto;html=1;exitX=0.5;exitY=0;exitDx=0;exitDy=0;entryX=0;entryY=0.5;entryDx=0;entryDy=0;" edge="1" parent="1" source="Su0bgsj7kbN5on_HVwE3-2" target="Su0bgsj7kbN5on_HVwE3-3">
          <mxGeometry relative="1" as="geometry" />
        </mxCell>
        <mxCell id="Su0bgsj7kbN5on_HVwE3-22" style="edgeStyle=orthogonalEdgeStyle;rounded=0;orthogonalLoop=1;jettySize=auto;html=1;exitX=0.5;exitY=1;exitDx=0;exitDy=0;entryX=0;entryY=0.5;entryDx=0;entryDy=0;" edge="1" parent="1" source="Su0bgsj7kbN5on_HVwE3-2" target="Su0bgsj7kbN5on_HVwE3-11">
          <mxGeometry relative="1" as="geometry" />
        </mxCell>
        <mxCell id="Su0bgsj7kbN5on_HVwE3-2" value="Gateway API" style="rounded=1;whiteSpace=wrap;html=1;fillColor=#1ba1e2;fontColor=#ffffff;strokeColor=#006EAF;" vertex="1" parent="1">
          <mxGeometry x="570" y="385" width="120" height="60" as="geometry" />
        </mxCell>
        <mxCell id="Su0bgsj7kbN5on_HVwE3-17" style="edgeStyle=orthogonalEdgeStyle;rounded=0;orthogonalLoop=1;jettySize=auto;html=1;exitX=0.5;exitY=1;exitDx=0;exitDy=0;entryX=0.5;entryY=0;entryDx=0;entryDy=0;startArrow=classic;startFill=1;" edge="1" parent="1" source="Su0bgsj7kbN5on_HVwE3-3" target="Su0bgsj7kbN5on_HVwE3-7">
          <mxGeometry relative="1" as="geometry" />
        </mxCell>
        <mxCell id="Su0bgsj7kbN5on_HVwE3-18" value="Open Feign" style="edgeLabel;html=1;align=center;verticalAlign=middle;resizable=0;points=[];" vertex="1" connectable="0" parent="Su0bgsj7kbN5on_HVwE3-17">
          <mxGeometry x="-0.0118" y="2" relative="1" as="geometry">
            <mxPoint as="offset" />
          </mxGeometry>
        </mxCell>
        <mxCell id="Su0bgsj7kbN5on_HVwE3-3" value="Review Service" style="rounded=0;whiteSpace=wrap;html=1;verticalAlign=top;fillColor=#dae8fc;strokeColor=#6c8ebf;" vertex="1" parent="1">
          <mxGeometry x="930" y="170" width="500" height="110" as="geometry" />
        </mxCell>
        <mxCell id="Su0bgsj7kbN5on_HVwE3-6" style="edgeStyle=orthogonalEdgeStyle;rounded=0;orthogonalLoop=1;jettySize=auto;html=1;exitX=1;exitY=0.5;exitDx=0;exitDy=0;" edge="1" parent="1" source="Su0bgsj7kbN5on_HVwE3-4" target="Su0bgsj7kbN5on_HVwE3-5">
          <mxGeometry relative="1" as="geometry" />
        </mxCell>
        <mxCell id="Su0bgsj7kbN5on_HVwE3-4" value="Review API" style="rounded=1;whiteSpace=wrap;html=1;movable=1;resizable=1;rotatable=1;deletable=1;editable=1;locked=0;connectable=1;fillColor=#1ba1e2;fontColor=#ffffff;strokeColor=#006EAF;" vertex="1" parent="1">
          <mxGeometry x="950" y="200" width="120" height="60" as="geometry" />
        </mxCell>
        <mxCell id="Su0bgsj7kbN5on_HVwE3-5" value="MySql" style="shape=cylinder3;whiteSpace=wrap;html=1;boundedLbl=1;backgroundOutline=1;size=15;fillColor=#0050ef;fontColor=#ffffff;strokeColor=#001DBC;" vertex="1" parent="1">
          <mxGeometry x="1350" y="205" width="40" height="50" as="geometry" />
        </mxCell>
        <mxCell id="Su0bgsj7kbN5on_HVwE3-15" style="edgeStyle=orthogonalEdgeStyle;rounded=0;orthogonalLoop=1;jettySize=auto;html=1;exitX=0.5;exitY=1;exitDx=0;exitDy=0;entryX=0.5;entryY=0;entryDx=0;entryDy=0;startArrow=openThin;startFill=0;" edge="1" parent="1" source="Su0bgsj7kbN5on_HVwE3-7" target="Su0bgsj7kbN5on_HVwE3-11">
          <mxGeometry relative="1" as="geometry" />
        </mxCell>
        <mxCell id="Su0bgsj7kbN5on_HVwE3-19" value="Open Feign" style="edgeLabel;html=1;align=center;verticalAlign=middle;resizable=0;points=[];" vertex="1" connectable="0" parent="Su0bgsj7kbN5on_HVwE3-15">
          <mxGeometry x="-0.1158" y="3" relative="1" as="geometry">
            <mxPoint as="offset" />
          </mxGeometry>
        </mxCell>
        <mxCell id="Su0bgsj7kbN5on_HVwE3-7" value="Comment Service" style="rounded=0;whiteSpace=wrap;html=1;verticalAlign=top;fillColor=#dae8fc;strokeColor=#6c8ebf;" vertex="1" parent="1">
          <mxGeometry x="930" y="370" width="500" height="110" as="geometry" />
        </mxCell>
        <mxCell id="Su0bgsj7kbN5on_HVwE3-8" style="edgeStyle=orthogonalEdgeStyle;rounded=0;orthogonalLoop=1;jettySize=auto;html=1;exitX=1;exitY=0.5;exitDx=0;exitDy=0;" edge="1" parent="1" source="Su0bgsj7kbN5on_HVwE3-9" target="Su0bgsj7kbN5on_HVwE3-10">
          <mxGeometry relative="1" as="geometry" />
        </mxCell>
        <mxCell id="Su0bgsj7kbN5on_HVwE3-9" value="Comment API" style="rounded=1;whiteSpace=wrap;html=1;movable=1;resizable=1;rotatable=1;deletable=1;editable=1;locked=0;connectable=1;fillColor=#1ba1e2;fontColor=#ffffff;strokeColor=#006EAF;" vertex="1" parent="1">
          <mxGeometry x="950" y="395" width="120" height="60" as="geometry" />
        </mxCell>
        <mxCell id="Su0bgsj7kbN5on_HVwE3-10" value="MySql" style="shape=cylinder3;whiteSpace=wrap;html=1;boundedLbl=1;backgroundOutline=1;size=15;fillColor=#0050ef;fontColor=#ffffff;strokeColor=#001DBC;" vertex="1" parent="1">
          <mxGeometry x="1350" y="400" width="40" height="50" as="geometry" />
        </mxCell>
        <mxCell id="Su0bgsj7kbN5on_HVwE3-11" value="Post Service" style="rounded=0;whiteSpace=wrap;html=1;verticalAlign=top;fillColor=#dae8fc;strokeColor=#6c8ebf;" vertex="1" parent="1">
          <mxGeometry x="930" y="570" width="500" height="110" as="geometry" />
        </mxCell>
        <mxCell id="Su0bgsj7kbN5on_HVwE3-12" style="edgeStyle=orthogonalEdgeStyle;rounded=0;orthogonalLoop=1;jettySize=auto;html=1;exitX=1;exitY=0.5;exitDx=0;exitDy=0;" edge="1" parent="1" source="Su0bgsj7kbN5on_HVwE3-13" target="Su0bgsj7kbN5on_HVwE3-14">
          <mxGeometry relative="1" as="geometry" />
        </mxCell>
        <mxCell id="Su0bgsj7kbN5on_HVwE3-13" value="Post API" style="rounded=1;whiteSpace=wrap;html=1;movable=1;resizable=1;rotatable=1;deletable=1;editable=1;locked=0;connectable=1;fillColor=#1ba1e2;fontColor=#ffffff;strokeColor=#006EAF;" vertex="1" parent="1">
          <mxGeometry x="950" y="580" width="120" height="60" as="geometry" />
        </mxCell>
        <mxCell id="Su0bgsj7kbN5on_HVwE3-14" value="MySql" style="shape=cylinder3;whiteSpace=wrap;html=1;boundedLbl=1;backgroundOutline=1;size=15;fillColor=#0050ef;fontColor=#ffffff;strokeColor=#001DBC;" vertex="1" parent="1">
          <mxGeometry x="1350" y="585" width="40" height="50" as="geometry" />
        </mxCell>
        <mxCell id="Su0bgsj7kbN5on_HVwE3-21" style="edgeStyle=orthogonalEdgeStyle;rounded=0;orthogonalLoop=1;jettySize=auto;html=1;exitX=1;exitY=0.5;exitDx=0;exitDy=0;entryX=-0.004;entryY=0.409;entryDx=0;entryDy=0;entryPerimeter=0;" edge="1" parent="1" source="Su0bgsj7kbN5on_HVwE3-2" target="Su0bgsj7kbN5on_HVwE3-7">
          <mxGeometry relative="1" as="geometry" />
        </mxCell>
        <mxCell id="Su0bgsj7kbN5on_HVwE3-24" style="edgeStyle=orthogonalEdgeStyle;rounded=0;orthogonalLoop=1;jettySize=auto;html=1;exitX=0.5;exitY=0;exitDx=0;exitDy=0;entryX=1;entryY=0.5;entryDx=0;entryDy=0;" edge="1" parent="1" source="Su0bgsj7kbN5on_HVwE3-23" target="Su0bgsj7kbN5on_HVwE3-3">
          <mxGeometry relative="1" as="geometry" />
        </mxCell>
        <mxCell id="Su0bgsj7kbN5on_HVwE3-25" style="edgeStyle=orthogonalEdgeStyle;rounded=0;orthogonalLoop=1;jettySize=auto;html=1;exitX=0;exitY=0.5;exitDx=0;exitDy=0;entryX=1;entryY=0.5;entryDx=0;entryDy=0;" edge="1" parent="1" source="Su0bgsj7kbN5on_HVwE3-23" target="Su0bgsj7kbN5on_HVwE3-7">
          <mxGeometry relative="1" as="geometry" />
        </mxCell>
        <mxCell id="Su0bgsj7kbN5on_HVwE3-26" style="edgeStyle=orthogonalEdgeStyle;rounded=0;orthogonalLoop=1;jettySize=auto;html=1;exitX=0.5;exitY=1;exitDx=0;exitDy=0;entryX=1;entryY=0.5;entryDx=0;entryDy=0;" edge="1" parent="1" source="Su0bgsj7kbN5on_HVwE3-23" target="Su0bgsj7kbN5on_HVwE3-11">
          <mxGeometry relative="1" as="geometry" />
        </mxCell>
        <mxCell id="Su0bgsj7kbN5on_HVwE3-53" style="edgeStyle=orthogonalEdgeStyle;rounded=0;orthogonalLoop=1;jettySize=auto;html=1;exitX=1;exitY=0.5;exitDx=0;exitDy=0;entryX=0;entryY=0.5;entryDx=0;entryDy=0;" edge="1" parent="1" source="Su0bgsj7kbN5on_HVwE3-23" target="Su0bgsj7kbN5on_HVwE3-52">
          <mxGeometry relative="1" as="geometry" />
        </mxCell>
        <mxCell id="Su0bgsj7kbN5on_HVwE3-23" value="Messaging Service RabbitMq" style="rounded=1;whiteSpace=wrap;html=1;fillColor=#60a917;fontColor=#ffffff;strokeColor=#2D7600;" vertex="1" parent="1">
          <mxGeometry x="1630" y="395" width="120" height="60" as="geometry" />
        </mxCell>
        <object c4Name="" c4Type="" c4Application="" label="" id="Su0bgsj7kbN5on_HVwE3-41">
          <mxCell style="rounded=1;fontSize=11;whiteSpace=wrap;html=1;dashed=1;arcSize=20;fillColor=none;strokeColor=#666666;fontColor=#333333;labelBackgroundColor=none;align=left;verticalAlign=bottom;labelBorderColor=none;spacingTop=0;spacing=10;dashPattern=8 4;metaEdit=1;rotatable=0;perimeter=rectanglePerimeter;noLabel=0;labelPadding=0;allowArrows=0;connectable=0;expand=0;recursiveResize=0;editable=1;pointerEvents=0;absoluteArcSize=1;points=[[0.25,0,0],[0.5,0,0],[0.75,0,0],[1,0.25,0],[1,0.5,0],[1,0.75,0],[0.75,1,0],[0.5,1,0],[0.25,1,0],[0,0.75,0],[0,0.5,0],[0,0.25,0]];" vertex="1" parent="1">
            <mxGeometry x="340" y="80" width="1660" height="820" as="geometry" />
          </mxCell>
        </object>
        <mxCell id="Su0bgsj7kbN5on_HVwE3-42" value="Discovery Eureka Service" style="rounded=1;whiteSpace=wrap;html=1;fillColor=#60a917;fontColor=#ffffff;strokeColor=#2D7600;" vertex="1" parent="1">
          <mxGeometry x="910" y="750" width="120" height="60" as="geometry" />
        </mxCell>
        <mxCell id="Su0bgsj7kbN5on_HVwE3-43" value="Config Service" style="rounded=1;whiteSpace=wrap;html=1;fillColor=#60a917;fontColor=#ffffff;strokeColor=#2D7600;" vertex="1" parent="1">
          <mxGeometry x="1060" y="750" width="120" height="60" as="geometry" />
        </mxCell>
        <mxCell id="Su0bgsj7kbN5on_HVwE3-65" style="edgeStyle=orthogonalEdgeStyle;rounded=0;orthogonalLoop=1;jettySize=auto;html=1;exitX=0.5;exitY=0.5;exitDx=0;exitDy=0;exitPerimeter=0;" edge="1" parent="1" source="Su0bgsj7kbN5on_HVwE3-45" target="Su0bgsj7kbN5on_HVwE3-63">
          <mxGeometry relative="1" as="geometry" />
        </mxCell>
        <mxCell id="Su0bgsj7kbN5on_HVwE3-45" value="User" style="shape=umlActor;verticalLabelPosition=bottom;verticalAlign=top;html=1;outlineConnect=0;" vertex="1" parent="1">
          <mxGeometry x="50" y="385" width="30" height="60" as="geometry" />
        </mxCell>
        <mxCell id="Su0bgsj7kbN5on_HVwE3-49" value="Web App" style="text;html=1;align=center;verticalAlign=middle;resizable=0;points=[];autosize=1;strokeColor=none;fillColor=none;fontStyle=1" vertex="1" parent="1">
          <mxGeometry x="405" y="358" width="70" height="30" as="geometry" />
        </mxCell>
        <object c4Name="" c4Type="" c4Application="" label="" id="Su0bgsj7kbN5on_HVwE3-50">
          <mxCell style="rounded=1;fontSize=11;whiteSpace=wrap;html=1;dashed=1;arcSize=20;fillColor=none;strokeColor=#666666;fontColor=#333333;labelBackgroundColor=none;align=left;verticalAlign=bottom;labelBorderColor=none;spacingTop=0;spacing=10;dashPattern=8 4;metaEdit=1;rotatable=0;perimeter=rectanglePerimeter;noLabel=0;labelPadding=0;allowArrows=0;connectable=0;expand=0;recursiveResize=0;editable=1;pointerEvents=0;absoluteArcSize=1;points=[[0.25,0,0],[0.5,0,0],[0.75,0,0],[1,0.25,0],[1,0.5,0],[1,0.75,0],[0.75,1,0],[0.5,1,0],[0.25,1,0],[0,0.75,0],[0,0.5,0],[0,0.25,0]];" vertex="1" parent="1">
            <mxGeometry x="910" y="150" width="590" height="590" as="geometry" />
          </mxCell>
        </object>
        <mxCell id="Su0bgsj7kbN5on_HVwE3-52" value="Notification Service" style="rounded=1;whiteSpace=wrap;html=1;fillColor=#60a917;fontColor=#ffffff;strokeColor=#2D7600;" vertex="1" parent="1">
          <mxGeometry x="1860" y="395" width="120" height="60" as="geometry" />
        </mxCell>
        <mxCell id="Su0bgsj7kbN5on_HVwE3-54" value="" style="shape=message;html=1;html=1;outlineConnect=0;labelPosition=center;verticalLabelPosition=bottom;align=center;verticalAlign=top;" vertex="1" parent="1">
          <mxGeometry x="1580" y="200" width="20" height="20" as="geometry" />
        </mxCell>
        <mxCell id="Su0bgsj7kbN5on_HVwE3-56" value="" style="shape=message;html=1;html=1;outlineConnect=0;labelPosition=center;verticalLabelPosition=bottom;align=center;verticalAlign=top;" vertex="1" parent="1">
          <mxGeometry x="1580" y="395" width="20" height="20" as="geometry" />
        </mxCell>
        <mxCell id="Su0bgsj7kbN5on_HVwE3-57" value="" style="shape=message;html=1;html=1;outlineConnect=0;labelPosition=center;verticalLabelPosition=bottom;align=center;verticalAlign=top;" vertex="1" parent="1">
          <mxGeometry x="1580" y="600" width="20" height="20" as="geometry" />
        </mxCell>
        <object c4Name="sdf" c4Type="" c4Application="" label="" id="Su0bgsj7kbN5on_HVwE3-59">
          <mxCell style="rounded=1;fontSize=11;whiteSpace=wrap;html=1;dashed=1;arcSize=20;fillColor=none;strokeColor=#666666;fontColor=#333333;labelBackgroundColor=none;align=left;verticalAlign=bottom;labelBorderColor=none;spacingTop=0;spacing=10;dashPattern=8 4;metaEdit=1;rotatable=0;perimeter=rectanglePerimeter;noLabel=0;labelPadding=0;allowArrows=0;connectable=0;expand=0;recursiveResize=0;editable=1;pointerEvents=0;absoluteArcSize=1;points=[[0.25,0,0],[0.5,0,0],[0.75,0,0],[1,0.25,0],[1,0.5,0],[1,0.75,0],[0.75,1,0],[0.5,1,0],[0.25,1,0],[0,0.75,0],[0,0.5,0],[0,0.25,0]];" vertex="1" parent="1">
            <mxGeometry x="140" y="280" width="150" height="270" as="geometry" />
          </mxCell>
        </object>
        <mxCell id="Su0bgsj7kbN5on_HVwE3-61" value="&amp;nbsp;Services" style="text;html=1;align=center;verticalAlign=middle;resizable=0;points=[];autosize=1;strokeColor=none;fillColor=none;fontStyle=0;fontSize=22;" vertex="1" parent="1">
          <mxGeometry x="430" y="110" width="110" height="40" as="geometry" />
        </mxCell>
        <mxCell id="Su0bgsj7kbN5on_HVwE3-62" value="" style="image;sketch=0;aspect=fixed;html=1;points=[];align=center;fontSize=12;image=img/lib/mscae/Docker.svg;" vertex="1" parent="1">
          <mxGeometry x="390" y="99" width="50" height="41" as="geometry" />
        </mxCell>
        <mxCell id="Su0bgsj7kbN5on_HVwE3-66" style="edgeStyle=orthogonalEdgeStyle;rounded=0;orthogonalLoop=1;jettySize=auto;html=1;entryX=0;entryY=0.5;entryDx=0;entryDy=0;" edge="1" parent="1" source="Su0bgsj7kbN5on_HVwE3-63" target="Su0bgsj7kbN5on_HVwE3-1">
          <mxGeometry relative="1" as="geometry" />
        </mxCell>
        <mxCell id="Su0bgsj7kbN5on_HVwE3-63" value="" style="sketch=0;pointerEvents=1;shadow=0;dashed=0;html=1;strokeColor=none;fillColor=#434445;aspect=fixed;labelPosition=center;verticalLabelPosition=bottom;verticalAlign=top;align=center;outlineConnect=0;shape=mxgraph.vvd.web_browser;" vertex="1" parent="1">
          <mxGeometry x="165.71" y="380" width="98.59" height="70" as="geometry" />
        </mxCell>
        <mxCell id="Su0bgsj7kbN5on_HVwE3-64" value="Browser" style="text;html=1;align=center;verticalAlign=middle;resizable=0;points=[];autosize=1;strokeColor=none;fillColor=none;" vertex="1" parent="1">
          <mxGeometry x="180" y="350" width="70" height="30" as="geometry" />
        </mxCell>
        <mxCell id="Su0bgsj7kbN5on_HVwE3-67" value="Client WebApp" style="text;html=1;align=center;verticalAlign=middle;resizable=0;points=[];autosize=1;strokeColor=none;fillColor=none;fontStyle=1" vertex="1" parent="1">
          <mxGeometry x="165.71" y="250" width="100" height="30" as="geometry" />
        </mxCell>
      </root>
    </mxGraphModel>
  </diagram>
</mxfile>
